<svg width="215" height="41" viewBox="0 0 215 41" fill="none" xmlns="http://www.w3.org/2000/svg">
<path fill-rule="evenodd" clip-rule="evenodd" d="M118.384 38.7572C117.829 38.7151 117.318 38.4199 116.977 37.956C116.593 37.1548 116.337 36.2692 116.167 35.3836L115.186 30.6605C115.015 29.5219 114.546 28.4254 113.779 27.4977C113.054 26.5699 112.073 25.8952 111.007 25.5156C109.558 24.9253 107.98 24.5879 106.445 24.5457C108.62 24.4614 110.752 23.871 112.628 22.7745C113.949 22.0576 115.058 20.9612 115.825 19.6117C116.465 18.4731 116.806 17.1658 116.806 15.8586C116.934 13.4548 115.698 11.1776 113.608 9.95466C110.666 8.43651 107.341 7.76178 104.058 7.97263H96.6813C93.4835 7.97263 91.309 7.76178 89.7314 7.76178V8.73171C90.4989 8.68954 91.2238 8.85822 91.906 9.11124C92.4176 9.19558 92.8013 9.61729 92.8866 10.0812C93.0572 10.9246 93.1424 11.768 93.0998 12.6536V35.1306C93.1424 35.974 93.0998 36.8596 92.8866 37.703C92.6734 38.1247 92.3323 38.462 91.906 38.6729C91.2238 38.9681 90.4563 39.0946 89.7314 39.0524V40.0224C92.1191 39.8115 94.5068 39.7693 96.8945 39.8115C99.8791 39.8115 102.267 40.0224 103.844 40.0224V39.0524C103.077 39.0946 102.352 38.9259 101.67 38.6729C101.158 38.5886 100.775 38.1668 100.689 37.703C100.519 36.8596 100.433 36.0161 100.476 35.1306V24.7566H103.844C104.655 24.6722 105.465 24.9674 106.019 25.5578C106.573 26.1904 107 26.9073 107.213 27.7085C107.426 28.6784 107.81 29.8592 108.023 31.2509L108.833 35.7631C108.961 37.2391 109.686 38.5886 110.837 39.5163C112.073 40.3597 113.523 40.7814 115.015 40.6971C116.167 40.7393 117.318 40.5284 118.384 40.1067C119.364 39.6428 120.26 38.9681 120.985 38.1247L120.388 37.7451C120.388 37.7451 119.236 38.7994 118.384 38.7572ZM102.437 23.9553H100.433V12.7379C100.391 11.9367 100.433 11.1354 100.647 10.3764C100.732 9.91249 101.03 9.44861 101.457 9.19558C102.011 8.94256 102.608 8.77388 103.247 8.81605C104.953 8.73171 106.573 9.44861 107.639 10.7981C108.705 12.5271 109.174 14.5091 109.046 16.4911C109.089 17.8406 108.876 19.1479 108.449 20.413C108.108 21.4673 107.383 22.3528 106.445 22.9854C105.251 23.6601 103.844 23.9975 102.437 23.9553Z" fill="#2A344F"/>
<path fill-rule="evenodd" clip-rule="evenodd" d="M179.952 11.9364C181.018 11.9364 182.084 11.599 182.937 10.9665C183.065 10.84 183.193 10.7135 183.321 10.5869C184.557 9.15314 184.387 7.0446 182.937 5.82165C182.084 5.18909 181.018 4.85173 179.952 4.85173C178.886 4.80956 177.82 5.14692 176.968 5.82165C176.84 5.94817 176.712 6.07468 176.584 6.20119C175.347 7.63499 175.518 9.74353 176.968 10.9665C177.778 11.6834 178.844 12.0207 179.952 11.9364Z" fill="#2A344F"/>
<path fill-rule="evenodd" clip-rule="evenodd" d="M183.705 16.2801C181.488 16.7018 179.186 16.9126 176.926 16.8705C176.116 16.8705 175.135 16.6596 174.155 16.6596V17.6295C175.007 17.5874 175.817 17.9669 176.329 18.5994C176.798 19.5272 177.011 20.5393 176.926 21.5514V35.9316C176.969 36.6063 176.926 37.2811 176.713 37.9136C176.5 38.3353 176.159 38.6727 175.732 38.8835C175.135 39.0522 174.538 39.1366 173.941 39.0944V40.0643C177.139 39.8535 179.314 39.8535 180.294 39.8535C181.275 39.8535 183.492 39.8535 186.477 40.0643V39.0944C185.88 39.1366 185.283 39.0944 184.686 38.8835C184.26 38.6727 183.919 38.3353 183.705 37.9136C183.535 37.2811 183.45 36.6063 183.492 35.9316L183.705 16.2801Z" fill="#2A344F"/>
<path fill-rule="evenodd" clip-rule="evenodd" d="M213.38 38.9256C212.953 38.7148 212.612 38.3774 212.399 37.9557C212.228 37.3231 212.143 36.6484 212.186 35.9737V23.7442C212.186 22.4791 212.058 21.2139 211.802 19.991C211.546 19.1897 211.12 18.4728 210.608 17.8403C210.011 17.2921 209.372 16.786 208.604 16.4486C207.624 16.1956 206.643 16.0691 205.62 16.0691C202.592 15.8161 199.736 17.3342 198.243 19.8645V16.2378C196.026 16.6595 193.724 16.8704 191.464 16.8282C190.654 16.8282 189.673 16.6173 188.693 16.6173V17.5873C189.545 17.5451 190.356 17.9246 190.867 18.5572C191.336 19.4849 191.549 20.497 191.464 21.5091V35.8893C191.507 36.5641 191.464 37.2388 191.251 37.8714C191.038 38.2931 190.697 38.6304 190.27 38.8413C189.673 39.01 189.076 39.0943 188.479 39.0521V40.0221C191.848 39.8112 193.852 39.8112 194.832 39.8112C195.813 39.8112 197.817 39.8112 200.588 40.0221V39.0521C200.119 39.0943 199.65 39.0521 199.181 38.8413C198.798 38.5883 198.542 38.2509 198.371 37.8714C198.201 37.2388 198.116 36.5641 198.158 35.8893V23.3646C198.158 22.3947 198.329 21.467 198.755 20.6235C199.139 19.8645 199.65 19.1897 200.333 18.6415C201.057 18.262 201.91 18.0511 202.72 18.0511C203.573 18.009 204.383 18.3885 204.895 19.0211C205.364 19.8645 205.534 20.8344 205.492 21.7622V35.9315C205.534 36.6062 205.492 37.281 205.279 37.9135C205.151 38.3352 204.852 38.6726 204.468 38.8835C204.255 39.0943 203.658 39.0943 203.061 39.0943V40.0642C206.046 39.8534 208.05 39.8534 209.031 39.8534C210.011 39.8534 212.015 39.8534 215 40.0642V39.0943C214.574 39.1786 213.977 39.1365 213.38 38.9256Z" fill="#2A344F"/>
<path fill-rule="evenodd" clip-rule="evenodd" d="M132.924 16.0693C129.897 15.9006 126.955 16.9549 124.738 19.0212C122.734 21.0032 121.753 24.1239 121.753 28.4675C121.753 32.811 122.734 35.9738 124.738 37.9137C126.912 39.9801 129.897 41.0343 132.924 40.8656C135.951 41.0343 138.893 39.9379 141.11 37.9137C143.114 35.9317 144.095 32.811 144.095 28.4675C144.095 24.1239 143.114 20.9611 141.11 19.0212C138.893 16.9549 135.951 15.9006 132.924 16.0693ZM136.122 36.9859C135.312 38.7571 134.331 39.727 132.924 39.727C131.517 39.727 130.536 38.9258 129.726 36.9859C128.788 34.2027 128.404 31.2507 128.532 28.2988C128.404 25.3468 128.788 22.4371 129.726 19.6116C130.536 17.8404 131.517 16.8705 132.924 16.8705C134.331 16.8705 135.312 17.8404 136.122 19.6116C137.06 22.3949 137.486 25.3468 137.316 28.2988C137.443 31.2507 137.06 34.1605 136.122 36.9859Z" fill="#2A344F"/>
<path fill-rule="evenodd" clip-rule="evenodd" d="M167.204 17.4608C165.925 16.533 164.39 16.0691 162.813 16.0691C161.32 16.027 159.871 16.4487 158.634 17.2499C157.483 17.8825 156.587 18.8524 156.033 19.991V4.80957C153.816 5.23128 151.514 5.44213 149.254 5.39996C148.444 5.39996 147.463 5.18911 146.482 5.18911V6.15903C147.335 6.11686 148.145 6.4964 148.657 7.12896C149.126 8.05671 149.339 9.06881 149.254 10.0809V38.0401C149.254 38.9257 149.083 39.7691 148.87 40.6125L149.467 40.992C150.107 40.486 150.874 40.0643 151.642 39.8112C152.622 39.6004 153.603 39.4317 154.626 39.4317H155.436C156.929 40.486 158.762 41.0764 160.595 40.992C162.471 41.0342 164.347 40.5703 165.968 39.6004C167.631 38.5461 168.952 37.028 169.762 35.2568C170.786 32.8953 171.255 30.3228 171.169 27.7504C171.297 25.5576 170.956 23.3225 170.189 21.2561C169.592 19.8223 168.569 18.4729 167.204 17.4608ZM164.22 28.5095C164.22 36.1846 162.642 39.9378 159.231 39.9378C157.994 39.9378 156.801 39.516 155.863 38.757V21.973C156.033 20.8344 156.587 19.7802 157.44 19.0211C158.25 18.3885 159.231 18.0512 160.212 18.0512C161.619 18.1355 162.813 19.0633 163.196 20.4127C163.964 23.0273 164.305 25.7684 164.22 28.5095Z" fill="#2A344F"/>
<path fill-rule="evenodd" clip-rule="evenodd" d="M67.9443 0.00210851C62.4014 -0.124404 57.2423 5.4843 57.2423 5.4843L24.8379 18.9367C24.8379 18.9367 34.6019 25.2202 45.4317 24.925C56.2616 24.672 67.0915 17.8825 67.0915 17.8825C65.3008 19.485 63.3394 20.9188 61.2928 22.1839C57.8819 24.2924 52.8506 27.16 46.4977 27.5396C41.5091 27.9191 36.5205 27.16 31.8731 25.3045C28.7179 24.2503 27.652 24.672 27.652 24.672C27.652 24.672 1.72849 36.9436 0.662556 37.4497C-0.403377 37.9557 -0.147553 39.9377 1.1742 39.263C2.5386 38.6305 16.6516 32.7687 19.2951 31.841C21.9386 30.9132 25.9039 30.7867 32.7685 33.6543C37.8849 35.552 43.2572 36.7328 48.7148 37.1967L51.2304 40.739H53.6181C53.6181 40.739 52.9786 39.9378 52.0405 38.9257C51.1025 37.8714 52.2964 36.5641 52.2964 36.5641C52.2964 36.5641 67.9869 32.0097 73.4018 26.5275C78.8168 21.0453 76.9834 14.3823 76.8128 11.5147C76.557 8.39407 82.0999 6.53857 82.0999 6.53857L76.9407 4.17701C74.6383 1.60459 71.3979 0.128621 67.9443 0.00210851ZM72.5917 7.17113C71.5258 7.2133 70.6304 6.36988 70.6304 5.35779C70.6304 4.26135 71.5258 3.41793 72.5917 3.41793C73.6577 3.41793 74.553 4.30352 74.553 5.35779C74.5104 6.41205 73.6577 7.2133 72.5917 7.17113Z" fill="#2A344F"/>
</svg>
