<svg xmlns="http://www.w3.org/2000/svg" viewBox="0 0 1114.35 721.48"><defs><style>.cls-1{isolation:isolate;}.cls-2,.cls-5{fill:#edddbe;}.cls-3,.cls-4{fill:#e5d0ac;}.cls-4,.cls-5{mix-blend-mode:multiply;}.cls-6{fill:#89694c;}.cls-7{fill:#916470;}.cls-8{fill:#6d4955;}.cls-9{fill:#e4eaf7;}.cls-10{fill:#828d9e;}.cls-11{fill:#cad2e5;}.cls-12{fill:#f7f9fc;}.cls-13{fill:#ffec54;}.cls-14{fill:#bb89ce;}.cls-15{fill:#7cc1a5;}.cls-16,.cls-18,.cls-37,.cls-39{fill:none;}.cls-16{stroke:#284f70;}.cls-16,.cls-18,.cls-30,.cls-37,.cls-39{stroke-miterlimit:10;}.cls-17{fill:#284f70;}.cls-18{stroke:#ab6860;stroke-width:2px;}.cls-19{fill:#d3dece;}.cls-20{fill:#ab6860;}.cls-21{fill:#d79267;}.cls-22{fill:#bf7b55;}.cls-23{fill:#7f5763;}.cls-24{fill:#9c6a75;}.cls-25{fill:#446631;}.cls-26{fill:#23440d;}.cls-27{fill:#71935e;}.cls-28{fill:#9abaaf;}.cls-29{fill:#babec9;}.cls-30{fill:#9e5c57;stroke:#c1a09f;stroke-width:0.5px;}.cls-31{fill:#88aa9d;}.cls-32{fill:#3a1c04;}.cls-33{fill:#a372ba;}.cls-34{fill:#492606;}.cls-35{fill:#894d49;}.cls-36{fill:#7f5533;}.cls-37{stroke:#894d49;stroke-width:0.75px;}.cls-38{fill:#51733e;}.cls-39{stroke:#000;}.cls-40{fill:#eac3a7;}.cls-41{fill:#ddaf9b;}.cls-42{fill:#56967c;}.cls-43{fill:#d3a289;}.cls-44{fill:#ea9b54;}.cls-45{fill:#ffebcf;}.cls-46{fill:#edd5b7;}.cls-47{fill:#7c7b7a;}.cls-48{fill:#8c8c8c;}.cls-49{fill:#7ca091;}.cls-50{fill:#60310b;}.cls-51{fill:#305f8e;}.cls-52{fill:#72441e;}.cls-53{fill:#f7b279;}.cls-54{font-size:36.24px;fill:#f9d14e;font-family:Eligible-Bold-Italic, Eligible Bold-Italic;font-style:italic;}</style></defs><title>Asset 19</title><g class="cls-1"><g id="Layer_2" data-name="Layer 2"><g id="Layer_3" data-name="Layer 3"><polygon class="cls-2" points="477.81 721.48 0 482.57 636.91 166.53 1114.35 404.64 477.81 721.48"/><polygon class="cls-3" points="391.31 289.27 865.16 528.67 1114.35 404.64 635.83 167.53 391.31 289.27"/><polygon class="cls-4" points="588.88 190.9 636.9 215.6 687.21 192.98 636.91 166.53 588.88 190.9"/><polygon class="cls-5" points="0 482.57 151.9 558.53 266.94 516.67 108.32 434.64 0 482.57"/><path class="cls-5" d="M424.5,538.64l128.8-78.82L410.07,394.89l-89.59-5.78L263,394.89l-4.1,4.51,15.58,6.38L223.3,430.36s-.57-.32-1.56-.81l-50.33-26-2.93,7L195.37,424a22.2,22.2,0,0,0-13.18,6.34,31.9,31.9,0,0,0-25.41-11.09c-16.63.5-34.12-2.68-28.84,15.31,1.62,5.52,15,14.09,30.69,11.19,6.77-1.25,8.84-3.21,9.24-4.67,2.77,4.88,5.42,17.8,22.49,26.79a33.67,33.67,0,0,0-.7-17.23c4.91,6.83,12.6,13.94,21.63,9.68,0,0,2.06-16.35-10.73-19.65,6.07-.32,13.53-1.49,18.37-4.89Z"/><polygon class="cls-5" points="818.39 507.09 771.57 483.73 769.47 490.09 808.67 511.84 666.26 581.48 619.6 565.49 614.6 568.13 658.09 585.47 503 661.3 454.84 639.2 450.17 644.2 542.08 689.49 860.62 530.94 818.39 507.09"/><path class="cls-5" d="M457.16,692.9c-.91,2-2.35,3.65-3.37,5.57s-1.57,4.3-.58,6.23,4,2.76,5.39,1.07c-2.65,3.45,0,9.43,4.39,9.72,3.45.23,6.35-2.42,8.78-4.88a12.91,12.91,0,0,0,4.27,9.3q3.42-6.45,7.26-12.68a13.29,13.29,0,0,0,23.84-3.74c.88-3.08-.17-5.74-3-7,13.68,2.53.06-10.35-4.27-12.5-9.73-4.84-22.74-10.66-33.93-6.52-8.47,3.13-27.48,11.94-29.24,21.66C442.45,701,451.9,695.59,457.16,692.9Z"/><path class="cls-4" d="M509.2,329.53c2.86,1.74,5.44,4,8.54,5.26,4.25,1.71,9,1.33,13.55.77,10.72-1.33,21.44-3.59,31.19-8.24S581,315.47,586.14,306a11.26,11.26,0,0,0,1.72-5.8c-.18-3.24-2.85-5.91-5.86-7.11s-6.35-1.2-9.59-1.19c-17,0-34-.06-51,.13-12.64.13-31.11,2.59-38.64,14.32C471.42,324,499.32,323.5,509.2,329.53Z"/><path class="cls-4" d="M832.2,465.08c-1.32.75-13.5-7.87-14.8-8.63-9-5.26-18.66-11.3-28.84-13.79-8.85-2.17-18.35-1.35-27.31-3.77-5.93-1.6-11.65-4-17.71-5-9.83-1.64-20.06.42-29.81-1.66-5.92-1.27-11.4-4-17.08-6.12-7.77-2.9-16-4.63-23.54-8-13.29-5.9-23.87-16.44-34.12-26.74-1.65-1.66-3.35-3.4-4.06-5.63-1.43-4.57,1.73-9.14,3.48-13.59,2.39-6.07,2.68-16.73-2.33-21.8-4-4-12-6.59-17-9.5-1.77-1-19.07-13.16-20.79-12.12l124.65-76L995.37,403.57l-31.28,14.9,59.07,29.22L937.84,492.5l-75.31-44.81Z"/></g><g id="Layer_2-2" data-name="Layer 2"><path class="cls-6" d="M861.42,419.14c-2.63,2.63-12.65,3.47-16.9,4.36s-3.74,6.05,4.52,10.95,15.63.84,20.37,2,7,1.65,6.71-2.22-3.61-14.42-3.61-14.42Z"/><path class="cls-7" d="M835.7,373.53v70.62c0,4.33,6.89,5.09,6.89,0V373.49l-3.45,1.72Z"/><polygon class="cls-8" points="835.7 378.11 842.59 381.18 842.59 373.49 839.14 375.21 835.7 373.53 835.7 378.11"/><polygon class="cls-9" points="438.65 78.08 595.56 0 595.56 114.73 438.65 194.19 438.65 78.08"/><polygon class="cls-10" points="191.49 191.38 318.92 127.96 319.92 128.96 318.92 199.66 192.49 265.18 191.49 264.18 191.49 191.38"/><polygon class="cls-11" points="192.49 192.38 319.92 128.96 319.92 200.66 192.49 265.18 192.49 192.38"/><polygon class="cls-9" points="196.88 192.7 315.52 133.66 315.52 200.41 196.88 260.49 196.88 192.7"/><path class="cls-12" d="M572.58,59.42c0,18.82-5,30.18-16.7,34.25-10.29,3.6-20.11-8.28-20.13-18.94,0-20.26,7.46-29.65,17.42-34.08C564.27,35.7,572.55,45.82,572.58,59.42Z"/><path class="cls-13" d="M557,39.53c-.9,9.31-2.83,27.32-2.83,27.32L571.41,51C569.16,43.42,563.83,38.5,557,39.53Z"/><path class="cls-14" d="M572.41,56a27.89,27.89,0,0,0-1-5h0L554.16,66.85Z"/><path class="cls-15" d="M554.16,66.85s9.17,11.51,13.62,16.79c3.28-5.85,4.82-13.89,4.82-24.18a32.34,32.34,0,0,0-.19-3.45Z"/><polygon class="cls-13" points="579.66 30.25 587.68 26.24 587.68 34.76 579.66 38.27 579.66 30.25"/><polygon class="cls-14" points="579.66 43.4 587.68 39.39 587.68 47.91 579.66 51.42 579.66 43.4"/><polygon class="cls-15" points="579.66 56.55 587.68 52.54 587.68 61.06 579.66 64.57 579.66 56.55"/><polyline class="cls-16" points="454.2 92.87 454.2 162.51 521.24 129.5"/><polygon class="cls-17" points="452.02 99.94 456.57 97.35 454.2 90.87 452.02 99.94"/><polyline class="cls-18" points="454.2 162.51 471.34 125.65 478.94 135.98 482.62 126.57 489.48 135.98 501.98 99.36"/><path class="cls-19" d="M824.17,203.4c10.8,4.66,18.38,4.34,17.24,30.88s-2.27,44-2.27,44l-46-22.58s.43-51.46.31-56S809.42,197.05,824.17,203.4Z"/><path class="cls-17" d="M938.5,375.21c.08,2.14,2.42,10.07-2.43,14.7S919.32,402,905.21,395.2s-43.69-21.54-43.69-21.54-2.26,3.46-1.66,6.55,4.32,5.59,4.32,5.59v10.72L867,398l1,23.92L858.47,417a6.43,6.43,0,0,1-3.5-5.7c0-11.08-.14-42.37,0-50.31.19-9.7,14.39-11.72,22.95-10.58S937.84,357,938.5,375.21Z"/><polygon class="cls-20" points="602.55 252.7 696.72 206.44 933.73 320.44 839.14 367.79 602.55 252.7"/><path class="cls-21" d="M765.62,219.29c-4,9.47-17.18,8.88-26-5.13-4.39-9.45-1.59-6.51-2.3-11.16s-2.2-10.49-4-10.37-.95,2.37-.71,5.09a12.92,12.92,0,0,1-.85,5.33s-4.37-7.46-7.33-5.8-3.79,10.19-2.13,13.86.83,3.79,5.69,5.69,5.23,1.63,9.07,7.69,16.66,22.84,33.3,8.34Z"/><path class="cls-22" d="M733.85,212.82a1.71,1.71,0,0,0-.28-.83,2.49,2.49,0,0,0-.53-.43,4.1,4.1,0,0,1-1.5-3.3,13.34,13.34,0,0,1,.67-3.69,4.13,4.13,0,0,0,.17-2.52l-.22,0c-.18.59-.33,1-.33,1s-.14-.24-.39-.63a3.85,3.85,0,0,0-1.38,1.58,10.13,10.13,0,0,0-.76,3c-.16,1.15-.33,2.3-.49,3.45a4.86,4.86,0,0,1-1.35,3.26c-.7.58-2.24.31-2.75,1.07a1.31,1.31,0,0,0-.16.31,16.29,16.29,0,0,0,3.51,1.67l1.28.49c.18,0,.35.07.48.11a4.12,4.12,0,0,0,2.81,0,2.74,2.74,0,0,0,1.36-2.06A8.16,8.16,0,0,0,733.85,212.82Z"/><polygon class="cls-23" points="839.14 367.79 839.14 375.21 933.73 328.05 933.73 320.44 839.14 367.79"/><polygon class="cls-24" points="839.14 367.79 602.55 252.7 602.55 260.31 839.14 375.21 839.14 367.79"/><path class="cls-7" d="M604.85,261.41v70.5c0,4.32,6.89,5.08,6.89,0V264.68Z"/><path class="cls-25" d="M139.76,308.23c-.53,1.94-1.36,4.18-2.45,4.83-.3-1.44.16-5.63.54-8.48a57.36,57.36,0,0,0-12.7-15.35l-2.9,25.63a65.84,65.84,0,0,0,8.83,8.68,37.56,37.56,0,0,1,2.51-3.53,11.39,11.39,0,0,1,.12,5.61,73.49,73.49,0,0,0,11.5,7.21A54.07,54.07,0,0,0,139.76,308.23Z"/><path class="cls-26" d="M141.89,350.24a83.71,83.71,0,0,0,3.36-14.88c-5.11-1.09-13.53,3.36-18.09,9.35s0,25,0,25a12.37,12.37,0,0,0,4.12-2.36,35.39,35.39,0,0,1,.11-5.32s1.4,1.61,2.51,2.86a37.46,37.46,0,0,0,6.77-11.3c-1.55-.8-3.46-2-3.9-3.08A16.89,16.89,0,0,1,141.89,350.24Z"/><path class="cls-27" d="M124.65,305.07s13.68,19.21,19.45,25C141.3,321.66,132.74,312.9,124.65,305.07Z"/><path class="cls-27" d="M144,336.8c-2.6-.34-8.87,4.23-14.53,16.86v3.57A241.85,241.85,0,0,1,144,336.8Z"/><polygon class="cls-19" points="603.33 147.6 641.23 166.73 677.08 147.09 639.01 129.85 603.33 147.6"/><path class="cls-28" d="M639,150.41a18.09,18.09,0,0,0,8,1.07,18.44,18.44,0,0,0,9.12-2.69,7.26,7.26,0,0,0,2.94-3.34,3.89,3.89,0,0,0-.81-4.19,5.75,5.75,0,0,0-2.14-1.07A58.55,58.55,0,0,0,639,137.06c-4.29-.1-7.2,3.46-5.64,7.81A10,10,0,0,0,639,150.41Z"/><path class="cls-28" d="M613.6,146.91c-1.2-1.19-1.89-2.46-.64-3a40.66,40.66,0,0,1,9.68-2.12c3.39-.44,4.25,2.89,2.61,5.39a5.25,5.25,0,0,1-1.41,1.52,6.79,6.79,0,0,1-3.27.86,10.93,10.93,0,0,1-3.23-.08A11.52,11.52,0,0,1,613.6,146.91Z"/><path class="cls-29" d="M636.91,108.86s-.54-10,7.89-10,9.85,4.6,9.75,10S636.91,108.86,636.91,108.86Z"/><path class="cls-11" d="M636.91,108.86l-3.23,9.47a4.23,4.23,0,0,0,2.08,1.24s-2.93,16.25-2.08,20.92,4.82,7.8,11.32,7.8,9.85-1.8,12.19-6.38-2.64-33-2.64-33S647.51,111.66,636.91,108.86Z"/><path class="cls-29" d="M654.55,108.86c2.37-2.37,6.2-3.92,6.5,3.49s.42,15.94-3.8,15.74l-.21-1.9s2-.32,2.39-6.11.81-10-1-10.37-3.37,2.12-3.37,2.12Z"/><path class="cls-10" d="M641.14,100.72l.52-3.48a6,6,0,0,1,3.57-.81,10.16,10.16,0,0,1,4.15,1l.76,3.32a7.16,7.16,0,0,1-9,0Z"/><path class="cls-20" d="M618.25,126.65c-3.79,0-6.87.86-6.87,1.92L613,143.83c0,.82,2.37,1.48,5.28,1.48s5.28-.66,5.28-1.48l1.59-15.26C625.12,127.51,622,126.65,618.25,126.65Z"/><ellipse class="cls-30" cx="618.25" cy="128.57" rx="6.87" ry="1.93"/><ellipse class="cls-30" cx="618.25" cy="127.57" rx="6.87" ry="1.93"/><ellipse class="cls-30" cx="618.25" cy="126.57" rx="6.87" ry="1.93"/><ellipse class="cls-30" cx="618.25" cy="125.57" rx="6.87" ry="1.93"/><ellipse class="cls-30" cx="618.25" cy="124.57" rx="6.87" ry="1.93"/><ellipse class="cls-30" cx="618.25" cy="123.57" rx="6.87" ry="1.93"/><ellipse class="cls-30" cx="618.25" cy="122.57" rx="6.87" ry="1.93"/><ellipse class="cls-30" cx="618.25" cy="121.57" rx="6.87" ry="1.93"/><polygon class="cls-31" points="641.23 166.73 641.23 174 677.08 154.77 677.08 147.09 641.23 166.73"/><polygon class="cls-28" points="641.23 166.73 603.33 147.6 603.33 155.43 641.23 174 641.23 166.73"/><path class="cls-31" d="M605.8,156.64v35.08c.14,2.39,4.52,2.52,4.52,0V158.85Z"/><path class="cls-31" d="M639,172.91V208c.14,2.39,4.52,2.52,4.52,0V172.78L641.22,174Z"/><path class="cls-31" d="M675.56,155.59v35.26c-.15,2.39-4.52,2.52-4.52,0V158Z"/><path class="cls-9" d="M497,304.81c-1,4.35-2.27,9.83-2.65,11.91s3.59,4,12.1,7.37,11.9,6.62,16.63,6.62,9.07-2.27,4.91-6.62-7.37-3.59-12.47-9.07-6-10.21-6-10.21Z"/><path class="cls-9" d="M523.31,285.54a58.29,58.29,0,0,1-1.39,8.88c-1.07,4.16-2.2,5.67,1.39,6.8A50.61,50.61,0,0,1,537.48,309c5.3,4,9.78,3.5,13.37,2.94s1.13-4.92-4.35-8.32-10.72-12.93-11.85-16.52S523.31,285.54,523.31,285.54Z"/><path class="cls-32" d="M498,225.92c.29,8.79,2.64,22.4.88,43.35s-3.51,36.46-3.51,36.46,5.27,6,16,1.61c0,0,2.34-19.18,3.51-31.34s4.54-37.49,5.27-46.27l3.08-2.35s3.07,29.88-2,59.6a20.78,20.78,0,0,0,16.25,4.25s2.93-18,1.37-83.1Z"/><path class="cls-14" d="M780.68,195.61c2.64-1.83,15.45,2.44,27.65,8.33s20.33,11,18.9,27.24-2.23,18.5-2.23,18.5-8.58,2.16-15.09-3.21a25.85,25.85,0,0,1-5.31,11.85l-28-13.47s.27-8-.56-10.88a13.6,13.6,0,0,0-2.58-4.86l-2.89,5.17s-5.37-3.2-8.78-15.8c0,0,6.3-.52,10.12-7.85S776.55,198.45,780.68,195.61Z"/><path class="cls-33" d="M802,242.73c-5.44,2.35-8.59-1.9-12.42-4.95-4.43-3.53-9.42-8.52-15.29-9.34-.52,2.06,1.17,3.62,1.73,5.53.83,2.89.56,10.88.56,10.88l28,13.47a26.26,26.26,0,0,0,5.25-11.48,10.23,10.23,0,0,1,.37-3.08C811.15,236.82,805,241.46,802,242.73Z"/><path class="cls-33" d="M777.58,210a40.87,40.87,0,0,1-.52-10.28c-1.57,2.76-2.78,6.35-5.16,10.9-3.82,7.33-10.12,7.85-10.12,7.85,3.41,12.6,8.78,15.8,8.78,15.8l2.89-5.17C771,219.72,778.41,215.89,777.58,210Z"/><path class="cls-34" d="M777.48,170.14c.1,2.18-.62,11-2.48,14.67s-3.51,7.33-2.89,8.36S783,197.72,787.29,197s-2.17-22.82-2.17-22.82Z"/><path class="cls-21" d="M780,170.25c-.83,7.74-.93,14.56.83,20.75s7.84,11.78,13.22,11.88c0,0,1.23.52,0,6.51s-2.07,5.06-1.24,13.22a20.61,20.61,0,0,0,14.56-15c-1-4.65.51-11.2.51-11.2s4.45-1.71,4.55-2,2.17-15,2.17-15l-10.23-20.25Z"/><path class="cls-22" d="M805.8,197.87c-2,1.43-6.76,5.09-11.8,5,0,0,1.24.52,0,6.51-.33,1.63-.64,2.74-.89,3.67,2.25,5.72,6,.44,8.38-2.75S807.84,196.43,805.8,197.87Z"/><path class="cls-34" d="M801.65,162.4c-.11,2,1.34,6.81,5.06,13.73s3.44,16.62,1.86,21.9,12.49,2.17,17.55-1.14c1.76-10.22.93-26.13-.92-31.81s-7.23-7-12.71-9.91-23.24-7.44-30.26.93-6.61,12.39-6.09,15.18S788.63,172,801.65,162.4Z"/><path class="cls-22" d="M786.67,177.17c-1.9-.81-3.82,8.88-2.58,11.15s3.4,3.41,4.69,2.58S789.36,178.3,786.67,177.17Z"/><path class="cls-19" d="M775,255.7c-5.17,0-9.36,1.66-9.36,3.69l2,19.47c0,2,2.19,3.69,7.36,3.69s7.37-1.65,7.37-3.69l2-19.47C784.36,257.36,780.16,255.7,775,255.7Z"/><ellipse class="cls-28" cx="774.99" cy="259.39" rx="9.36" ry="3.69"/><path class="cls-21" d="M809.91,246.47c-1.34,4.89-3.75,13.9-15.32,19.92-8,2.74-7.25.18-10.76-1.89l-.47,4.63a15.5,15.5,0,0,1-9,3.21c-5.18,0-10.9,0-7.71,3.85s5.52,4.37,9.47,5,5.95-1.32,9.26-2.09,12.55,0,21.92-7.93,13.88-21,13.88-21S815.75,250.88,809.91,246.47Z"/><path class="cls-22" d="M818.39,250a9.25,9.25,0,0,0-.67,1.05,87.34,87.34,0,0,1-8.21,13.49c-3.28,4.14-7.45,7.72-12.44,9.44s-10.6,1.47-15.84,2.62c-3.66.79-7.93,2.15-10.79-.26-1.11-.92-3.08-3.47-4.73-1.94a3.37,3.37,0,0,0,.91,1.75c3.2,3.86,5.52,4.37,9.47,5s5.95-1.32,9.26-2.09,12.55,0,21.92-7.93,13.88-21,13.88-21A11.61,11.61,0,0,1,818.39,250Z"/><path class="cls-20" d="M1068.32,360.31h0a7.26,7.26,0,0,0,.27-2c0-7.17-10.54-13-23.54-13s-23.53,5.81-23.53,13A7.51,7.51,0,0,0,1022,361l6.53,35h.24c1.3,4.32,8.08,7.61,16.27,7.61s15-3.29,16.27-7.61h0l0-.19a5.28,5.28,0,0,0,.13-.67Z"/><path class="cls-35" d="M1025.76,372a29.43,29.43,0,0,0,4.26,2.43,34.75,34.75,0,0,0,14.14,3.35,43.47,43.47,0,0,0,9.71-.9,41.11,41.11,0,0,0,4.72-1.27,29.94,29.94,0,0,0,4.54-1.88,30.89,30.89,0,0,1-9.14,3.71,40.76,40.76,0,0,1-9.85,1.09,31.45,31.45,0,0,1-9.75-1.77A28.33,28.33,0,0,1,1025.76,372Z"/><path class="cls-36" d="M1062.43,359.86c-1.16-.68-1.85-2.1-2.88-3a8.42,8.42,0,0,0-3.22-1.54c-4-1.25-8.13-2.51-12.29-2.36a35.37,35.37,0,0,0-9.13,1.95,15.73,15.73,0,0,0-5.42,2.54,9.5,9.5,0,0,1-2.19,1.64,3.19,3.19,0,0,0-.59.28c-.48.36-.59,1.1-.79,1.73-.41,1.21-1.22,2.26-1.57,3.43,4,4.06,11.76,6.81,20.7,6.81,8.19,0,15.39-2.3,19.61-5.8,0-.58.1-1.16.13-1.74a4,4,0,0,0-.52-2.86A6.16,6.16,0,0,0,1062.43,359.86Z"/><ellipse class="cls-37" cx="1045.05" cy="358.34" rx="23.54" ry="12.99"/><path class="cls-38" d="M1017.63,258.32C1020,270,1038.26,329,1041.15,341a186.87,186.87,0,0,1,3.9,21.13s2.68-25.75-.61-51.9S1032.21,259.85,1017.63,258.32Z"/><path class="cls-38" d="M1045.05,362.13c0-11.3,9.81-30.08,15.55-35.3s23.22-28.44,25.83-54.53A69.43,69.43,0,0,1,1075,283C1068.43,287.69,1039,307.52,1045.05,362.13Z"/><path class="cls-27" d="M1066.07,303.23c1.71-3.42,10.39-13.28,12.1-16.8,0,0-6.64,11.57-12.1,18.29S1066.07,303.23,1066.07,303.23Z"/><path class="cls-26" d="M1045.05,362.13c-6.63-22.78-19.15-58-17.06-92.7s10.43-58.71,10.43-58.71S1050.43,252,1052,277,1045.05,362.13,1045.05,362.13Z"/><path class="cls-27" d="M1039.21,252.7c-1,5.25-1.87,53.78.76,66s3.91,21.92,3.91,21.92-4.19-30.79-3.91-37.31S1039.21,252.7,1039.21,252.7Z"/><path class="cls-38" d="M1045.05,362.13c-3.9-21.13-24.89-35-33.5-53s-11.74-32.62-11.74-33.4,9.68-2.35,24.54,23.22S1037.33,326.73,1045.05,362.13Z"/><path class="cls-27" d="M1009.2,291.61c1.31,4.17,12.29,19.38,15.15,25.61s12.77,23.44,12.77,23.44-9.08-18.36-11.36-24.53S1013.77,298.25,1009.2,291.61Z"/><path class="cls-38" d="M1056.69,233.94c-.78,10.7-6.34,28.44-10.61,50.36s-1,77.83-1,77.83,7.46-37.65,15.55-50.69S1064,251.69,1056.69,233.94Z"/><path class="cls-25" d="M1058,268.12c-.26,7.05-6.28,25.87-9.39,39.4s-4.16,52.54-4.16,52.54,3.25-17.35,11.06-26.7S1075.21,296.82,1058,268.12Z"/><path class="cls-27" d="M1058.76,298c-.23,2.68-4,12.73-6.58,19.18s-4.61,29.63-4.61,29.63,4.11-25.58,6-29.63S1058.76,302.1,1058.76,298Z"/><path class="cls-29" d="M807.93,298.34l14.62,32.21,43.86-21.86-12.22-28.76a1.88,1.88,0,0,0-2.37-1L809.75,294A3.17,3.17,0,0,0,807.93,298.34Z"/><polygon class="cls-29" points="822.55 330.55 822.55 333.39 852.64 347.82 852.64 344.18 822.55 330.55"/><path class="cls-11" d="M822.55,330.55l27.89,12.63a4.65,4.65,0,0,0,4.29-.23l36.38-21.59a.94.94,0,0,0-.1-1.67l-24.6-11Z"/><polygon class="cls-10" points="852.64 344.18 852.64 347.82 892.11 324.02 892.68 320.44 852.64 344.18"/><polygon class="cls-29" points="830.92 330.55 833.9 331.87 836.46 330.55 833.44 329.22 830.92 330.55"/><polygon class="cls-10" points="834.5 328.78 837.48 330.1 840.04 328.78 837.02 327.45 834.5 328.78"/><polygon class="cls-29" points="838.24 326.94 841.22 328.26 843.78 326.94 840.76 325.6 838.24 326.94"/><polygon class="cls-10" points="841.55 325.12 844.53 326.44 847.09 325.12 844.07 323.78 841.55 325.12"/><polygon class="cls-29" points="845.21 323.22 848.19 324.54 850.75 323.22 847.73 321.88 845.21 323.22"/><polygon class="cls-10" points="848.79 321.11 851.77 322.43 854.33 321.11 851.31 319.78 848.79 321.11"/><polygon class="cls-29" points="852.4 319.36 855.38 320.68 857.94 319.36 854.92 318.03 852.4 319.36"/><polygon class="cls-29" points="855.98 317.31 858.96 318.63 861.52 317.31 858.5 315.97 855.98 317.31"/><polygon class="cls-10" points="859.76 315.29 862.74 316.61 865.29 315.29 862.27 313.95 859.76 315.29"/><polygon class="cls-29" points="863.32 313.32 866.3 314.63 868.86 313.32 865.84 311.98 863.32 313.32"/><polygon class="cls-10" points="836.46 331.84 839.44 333.15 842 331.84 838.98 330.5 836.46 331.84"/><polygon class="cls-29" points="840.04 330.07 843.02 331.39 845.57 330.07 842.55 328.73 840.04 330.07"/><polygon class="cls-29" points="843.78 328.23 846.76 329.54 849.31 328.23 846.29 326.89 843.78 328.23"/><polygon class="cls-10" points="847.09 326.41 850.07 327.72 852.63 326.41 849.61 325.07 847.09 326.41"/><polygon class="cls-29" points="850.75 324.51 853.73 325.82 856.28 324.51 853.26 323.17 850.75 324.51"/><polygon class="cls-10" points="854.33 322.4 857.31 323.71 859.86 322.4 856.84 321.06 854.33 322.4"/><polygon class="cls-29" points="857.94 320.65 860.92 321.96 863.47 320.65 860.46 319.31 857.94 320.65"/><polygon class="cls-10" points="861.52 318.59 864.5 319.91 867.05 318.59 864.03 317.26 861.52 318.59"/><polygon class="cls-29" points="865.29 316.57 868.28 317.89 870.83 316.57 867.81 315.24 865.29 316.57"/><polygon class="cls-10" points="868.86 314.6 871.84 315.92 874.39 314.6 871.37 313.27 868.86 314.6"/><polygon class="cls-29" points="839.13 334.55 842.11 335.86 844.66 334.55 841.64 333.21 839.13 334.55"/><polygon class="cls-10" points="842.7 332.78 845.68 334.09 848.24 332.78 845.22 331.44 842.7 332.78"/><polygon class="cls-39" points="846.45 330.93 849.43 332.25 851.98 330.93 848.96 329.59 846.45 330.93"/><polygon class="cls-29" points="849.76 329.11 852.74 330.43 855.29 329.11 852.27 327.77 849.76 329.11"/><polygon class="cls-10" points="853.41 327.21 856.39 328.53 858.95 327.21 855.93 325.88 853.41 327.21"/><polygon class="cls-29" points="856.99 325.1 859.97 326.42 862.53 325.1 859.51 323.77 856.99 325.1"/><polygon class="cls-10" points="860.61 323.35 863.59 324.67 866.14 323.35 863.12 322.02 860.61 323.35"/><polygon class="cls-29" points="864.18 321.3 867.16 322.62 869.72 321.3 866.7 319.96 864.18 321.3"/><polygon class="cls-39" points="867.96 319.28 870.94 320.6 873.5 319.28 870.48 317.94 867.96 319.28"/><polygon class="cls-29" points="871.52 317.31 874.5 318.63 877.06 317.31 874.04 315.97 871.52 317.31"/><polygon class="cls-10" points="844.35 335.83 847.33 337.15 849.89 335.83 846.87 334.49 844.35 335.83"/><polygon class="cls-29" points="847.93 334.06 850.91 335.38 853.47 334.06 850.45 332.72 847.93 334.06"/><polygon class="cls-39" points="851.67 332.22 854.65 333.53 857.21 332.22 854.19 330.88 851.67 332.22"/><polygon class="cls-10" points="854.98 330.4 857.96 331.71 860.52 330.4 857.5 329.06 854.98 330.4"/><polygon class="cls-29" points="858.64 328.5 861.62 329.81 864.18 328.5 861.16 327.16 858.64 328.5"/><polygon class="cls-10" points="862.22 326.39 865.2 327.7 867.75 326.39 864.74 325.05 862.22 326.39"/><polygon class="cls-10" points="865.83 324.64 868.81 325.95 871.37 324.64 868.35 323.3 865.83 324.64"/><polygon class="cls-29" points="869.41 322.58 872.39 323.9 874.95 322.58 871.93 321.25 869.41 322.58"/><polygon class="cls-10" points="873.19 320.57 876.17 321.88 878.72 320.57 875.71 319.23 873.19 320.57"/><polygon class="cls-10" points="876.75 318.59 879.73 319.91 882.28 318.59 879.27 317.26 876.75 318.59"/><polygon class="cls-29" points="846.33 338.69 849.31 340 851.87 338.69 848.85 337.35 846.33 338.69"/><polygon class="cls-10" points="849.9 336.92 852.89 338.23 855.44 336.92 852.42 335.58 849.9 336.92"/><polygon class="cls-39" points="853.65 335.07 856.63 336.39 859.18 335.07 856.16 333.74 853.65 335.07"/><polygon class="cls-29" points="856.96 333.25 859.94 334.57 862.5 333.25 859.48 331.92 856.96 333.25"/><polygon class="cls-10" points="860.62 331.36 863.6 332.67 866.15 331.36 863.13 330.02 860.62 331.36"/><polygon class="cls-29" points="864.19 329.25 867.17 330.56 869.73 329.25 866.71 327.91 864.19 329.25"/><polygon class="cls-39" points="867.81 327.5 870.79 328.81 873.34 327.5 870.32 326.16 867.81 327.5"/><polygon class="cls-10" points="871.38 325.44 874.37 326.76 876.92 325.44 873.9 324.11 871.38 325.44"/><polygon class="cls-29" points="875.16 323.42 878.14 324.74 880.7 323.42 877.68 322.09 875.16 323.42"/><polygon class="cls-29" points="878.72 321.45 881.71 322.77 884.26 321.45 881.24 320.12 878.72 321.45"/><path class="cls-40" d="M870.57,344.18c-5.93-5-10.41-13.53-14.17-15.65a14.13,14.13,0,0,0-12.62-.3c-3.74,1.84-.27,2.63,4.15,5.83s4.8,5.91,7.05,7.29,2.54,0,5.54,3.14,6.65,8,6.87,7.74S870.57,344.18,870.57,344.18Z"/><path class="cls-41" d="M868,341.74c-.39-.41-.77-.83-1.14-1.25a1.34,1.34,0,0,0-.72.49,16.82,16.82,0,0,0-.79,1.52,3.29,3.29,0,0,1-2.9,1.4,6.89,6.89,0,0,1-3.17-1.07c-5-2.9-8.12-8.43-13.25-11.1-1.31-.68-2.81-1.25-3.52-2.54a.44.44,0,0,0-.06-.1c-1.22,1.32,1.78,2.31,5.45,5,4.42,3.2,4.8,5.91,7.05,7.29s2.54,0,5.54,3.14c2,2.05,4.18,4.8,5.55,6.41a4.6,4.6,0,0,0,1.77-3.08A19.09,19.09,0,0,0,868,341.74Z"/><path class="cls-40" d="M890.41,325.05c-4-.88-8.67-3.15-11.69-4.48s-7-5.64-11-4S858.53,318,857,319.35s-4.4,2.83,2.9,3,11.61,2.36,12.32,3-7.09-1.64-9.65-.33,4.14,1.9,7.2,4.15,8.17,2.33,11.38,1.63,7.23,1.37,7.23,1.37Z"/><path class="cls-41" d="M888.45,331.88l1.49-5.21a7.49,7.49,0,0,0-.48-1.86,43.5,43.5,0,0,1-5.51-1.93c-.11.13-.22.28-.32.42a9.78,9.78,0,0,0-1.51,7.06c0,.13,0,.26.08.39a14.05,14.05,0,0,1,6,1.42C888.28,332.08,888.36,332,888.45,331.88Z"/><path class="cls-42" d="M908.23,323.17c-4,.64-18.83-.79-20.16,0s-2.51,8-.94,11.4c4.54,0,18.14,1,18.14,1Z"/><path class="cls-15" d="M927.17,308.69c-8.13,3.09-17.72,6.89-22.08,12.75s-7.15,18-15.69,22.74-17.12-.4-19.68-2.75-7.08,5.92-2.77,13.25c4.44,3.31,16,6.8,31.17.87,0,0-1.29,9.71-2,18.11s18.69,20.25,24.09,18.16,21.45-15.35,21.8-15.87,13-58,11.47-64-4.21-12.73-14.27-7.56S927.17,308.69,927.17,308.69Z"/><path class="cls-42" d="M950.52,305c-4.09.43-8.68,2.6-11.39,3.75l-19.76,8.4c-5.74,2.43-11.35,5.33-13.08,11.71a47,47,0,0,1-11.85,20.34,12.44,12.44,0,0,1-4,3.07c-2.34,1-5,.62-7.51.25A66.5,66.5,0,0,1,871.27,350c-1.63-.57-3.66-1.19-4.92,0a3.09,3.09,0,0,0-.57,3.18c1.34,4,9.46,5.08,13.14,5.41a42.63,42.63,0,0,0,19.2-3.07l0,.14a74.11,74.11,0,0,0,7.49-4.4c1.42,5.13-.06,10.56-1.53,15.67q-1.54,5.34-3.08,10.68a19,19,0,0,0-.84,4.12c5.81,6.2,16.35,11.52,20.12,10.06,2.55-1,7.46-4.45,12-7.89,2.51-3.15,4.76-6.56,7.22-9.75,1.35-1.76,2.79-3.47,4.23-5.17,3.45-15.59,11.09-52.35,9.85-57A18.88,18.88,0,0,0,950.52,305Z"/><path class="cls-43" d="M916,277.59s-4.54,9.78-.89,11.64S916,277.59,916,277.59Z"/><path class="cls-40" d="M917,268.12s-1.58,15.24-1.81,21.11.23,12.65,6.32,14.45c0,0-.22,7.49,0,10.86s16.49,5.85,17.39-2.28,0-9.48,0-9.48L928,272.3Z"/><path class="cls-41" d="M934.28,289.89a11.41,11.41,0,0,0-1.31-.33,4.6,4.6,0,0,0-4.67,1.59c-1.23,1.24-3.75,2.06-4.34,3.56-.27.68-.39,1.41-.68,2.08a8.77,8.77,0,0,1-2.63,3c-.64.53-2.18,1.19-2,2.16.1.66,1.53,1.45,2.14,1.42.89-.06,2.21-1.43,2.94-1.94.17-.12.39-.25.58-.15a.56.56,0,0,1,.22.35,8.4,8.4,0,0,1,.3,2.06l.53,7.91a9.67,9.67,0,0,0,.52,3c1.15,2.77,4.91,3.33,7.48,2.77s5.21-2.18,5.53-5.12c.91-8.13,0-9.48,0-9.48Z"/><path class="cls-44" d="M920.8,284.49s5.77-3.16,6.39,3.39-3.47,6.09-3.47,6.09,5,2.09,6.3,5.35,7.18,7.06,8.84,3.46,5.92-17.23,7.62-20.92,3.7-12.64,0-14.91-10.22-4.54-13.62-6.95-7.1-5-10.65-2.56-5.82-1-8.38,2-.62,7.28,3.13,8.69,5,2.52,4.54,5.36S920.8,284.49,920.8,284.49Z"/><path class="cls-11" d="M814.26,301.19l9.19,19.52a3.09,3.09,0,0,0,4,1.54L861.11,308a1.55,1.55,0,0,0,.83-2l-8.6-20.76a1.89,1.89,0,0,0-2.39-1.05l-34.9,12.73A3.18,3.18,0,0,0,814.26,301.19Z"/><path class="cls-19" d="M861.52,373.66s47.12,22.94,46.71,22.8,12.19-53.75,17.26-62.33,31.08-13.91,40.12-13.45,3.75,13.19,0,24.68-7.27,28.68-7.71,33.75c0,0,3.08,1.76,2.2,4.85v8.1L909.41,414.6l-45.23-18.08V385.8S855.74,381,861.52,373.66Z"/><path class="cls-31" d="M867,398v47.29c0,4.41,7.2,5.73,7.2,0V400.51Z"/><path class="cls-31" d="M948.27,397.32v39c0,4.41,7.2,5.73,7.2,0V394.12Z"/><path class="cls-31" d="M903.93,412.73v43.56c0,4.4,7.2,5.73,7.2,0V414.07l-1.63.73Z"/><path class="cls-28" d="M711.37,299.53c-8.68-3.31-11.16-10.12-11.16-10.12l6.41-13.84c2.48-1,11.57-1,16.32,5.69Z"/><path class="cls-19" d="M722.92,281.27s14.45-5.71,26.25,11.63l-15.23,23.7s-13.89-13.75-22.57-17.05Z"/><path class="cls-45" d="M747.52,315.28c-1.65-4.18-2.06-12-2.89-17.82s-.17-4.74-4.92-8.25-12.37-1.71-11.75-.06,1.18,1.5,1.18,1.5-3.69-.15-.19,7.84c1.75,4,2.66,3.31,6.59,7.65s2.27,13.64,2.27,13.64Z"/><polygon class="cls-33" points="730.27 291.23 732.99 294.63 749.17 279.73 746.28 276.56 730.27 291.23"/><path class="cls-46" d="M719.11,370.19v31s11.76,5.37,11.16,4.5,1.86-40.87,1.86-40.87Z"/><path class="cls-47" d="M727.44,402.06c-3.48-4-9.54-9.18-13-6.76s1,16.77,3.12,19.3,3.3-2.67,3.3-2.67Z"/><path class="cls-45" d="M729.62,358.37a5.45,5.45,0,0,1,.39,2.07,43.13,43.13,0,0,1-.55,5.18l-1.57,14.66-2.27,21.08s11,4.65,15.83,3.63,3.81-1.55,3.81-1.55-7.42-3.57-9.77-9.32c0,0,12.89-37.3,14.28-44,1.09-5.22,4-9.36-1.37-12.62-7.3-4.42-15.11-8.17-22.63-12.24a24.93,24.93,0,0,0-7.89-3.16c-2.81-.43-6,.26-7.79,2.45-2.45,3-1.69,7.38-.29,11a40.78,40.78,0,0,0,14.73,18.54C726.83,355.66,728.81,356.43,729.62,358.37Z"/><path class="cls-46" d="M748.4,337.54c-7.3-4.42-15.11-8.17-22.63-12.24a24.93,24.93,0,0,0-7.89-3.16c-2.81-.43-6,.26-7.79,2.45-2.45,3-1.69,7.38-.29,11a40.78,40.78,0,0,0,14.73,18.54c2.3,1.58,4.28,2.35,5.09,4.29a5.45,5.45,0,0,1,.39,2.07,43.13,43.13,0,0,1-.55,5.18c0,.31-.07.62-.1.93a7.83,7.83,0,0,0,3.18-.57c1.21-.49,2.24-1.33,3.41-1.9,2.32-1.13,5-1.1,7.55-1.5.92-.15,1.81-.22,2.67-.31,1.78-5.53,3.19-10.15,3.6-12.11C750.86,344.94,753.79,340.8,748.4,337.54Z"/><path class="cls-48" d="M722.5,397.37c4.35-.67,12.78,7.52,20.28,4.63s8.72-2,9.76.66-4.64,9-10.49,11.87S731.23,418,729,411.93c0,0-2.42,6.93-4.15,7.79s-7.45-8.39-7.45-13.93S718.89,397.93,722.5,397.37Z"/><path class="cls-44" d="M695.53,375.21c4.67,4.5,26.35-7.62,35.7-14.38s13.28-10.91,13.28-10.91-11-13.85-23.66-20.61S703,322.49,703,322.49L689,342.3Z"/><path class="cls-38" d="M654,293.46c0-10,4.16-33.91,11.08-30.38s35.86,20.72,42.44,22.52,8.64,12.35,13.34,17.88,17.28,13.13,17.28,13.13,2.48-9.88,11-2.66,5.08,18.07,0,22.46-22.68-2.07-37.8-18.18a49.87,49.87,0,0,1-4.21,11.26,26.51,26.51,0,0,0-3,11.6s-2.83,2.55-10.66,3.18S654,293.46,654,293.46Z"/><path class="cls-25" d="M749.34,332.51c-1.89.25-3.74.83-5.64.89-4.16.12-8-2.2-11.47-4.44a92.44,92.44,0,0,1-13-9.43,23.24,23.24,0,0,0-4.6-3.75,6,6,0,0,0-5.68-.26c-.33.19-.63.42-1,.6a4.81,4.81,0,0,1-2.81.33c-4.06-.49-7.57-3.07-10.36-6.05s-5-6.44-7.8-9.43c-6.81-7.32-16.51-11.46-26.37-13.09a12.81,12.81,0,0,0-6.34.16c-.19,2-.29,3.89-.29,5.42,0,0,31.69,51.44,39.53,50.81s10.66-3.18,10.66-3.18a26.51,26.51,0,0,1,3-11.6,49.87,49.87,0,0,0,4.21-11.26c15.12,16.11,32.73,22.58,37.8,18.18a14.35,14.35,0,0,0,3.11-3.91A10.34,10.34,0,0,0,749.34,332.51Z"/><path class="cls-19" d="M736.43,364.82c-4.57,4.49-28.75,17.14-34.12,19.22s-9.52.87-20.09-5-36-16.8-39.66-18.53-1-7.1-1-7.1-.4-54.09,3.46-61.14c3.64-6.65,37.41,2.39,39,15.24.15,1.23,16.79,69.57,21.58,67.24,11-5.32,27.1-14.82,29.49-16.71C738.45,355.32,736.43,364.82,736.43,364.82Z"/><path class="cls-31" d="M722.94,373.52V416.4c0,6.33,7.33,6.43,7.33,0V369.21Z"/><path class="cls-31" d="M644.52,361.38v37.4c0,6.34,7.33,6.44,7.33,0v-34Z"/><path class="cls-45" d="M693.64,221.13c-5.09.85-10.8,2.74-12.44,11.34s-3.84,25.29-1.83,31.39,17.92,11.49,27.07-2.45,9-20.53,5.14-28S701.32,219.85,693.64,221.13Z"/><path class="cls-34" d="M683.76,222.61c-2.93,4.55-3.48,7.11-1.83,13.15A17.45,17.45,0,0,1,681,247s2.93-7.25,4.39-2.67,1.1,9.52-1.09,11.34-1.84.73-3.3-.92c0,0-.36,2.65-3.47,6.63s-8.23,10.63-5.85,17.37,12.77,17,23.77,20.75,10.8-9.78,14.45-23,10.25-23.24,10.06-30.1-4.2-19.27-12.07-23.86-13.73-3.53-14.91-1.51c0,0,10,6.56,12.9,11.92,0,0-4.66-6-8.8-8.59S691.81,218.05,683.76,222.61Z"/><polygon class="cls-23" points="689.44 525.54 689.44 532.95 610.55 493.49 610.55 485.88 689.44 525.54"/><polygon class="cls-23" points="689.44 525.54 853.71 447.24 853.71 454.85 689.44 532.95 689.44 525.54"/><path class="cls-23" d="M851.41,456v70.49c0,4.33-6.89,5.09-6.89,0V459.22Z"/><path class="cls-23" d="M613.67,495.05v70.5c0,4.33,6.89,5.08,6.89,0V498.33Z"/><path class="cls-23" d="M692.88,531.31V601.9c0,4.32-6.89,5.08-6.89,0V531.4l3.48,1.55Z"/><path class="cls-8" d="M692.88,537.91v-6.6L689.47,533,686,531.4v3.44Z"/><polygon class="cls-23" points="525.65 602.74 525.65 610.16 446.76 570.7 446.76 563.09 525.65 602.74"/><polygon class="cls-8" points="525.65 602.74 689.92 524.44 689.92 532.06 525.65 610.16 525.65 602.74"/><path class="cls-24" d="M687.62,533.15v70.5c0,4.33-6.89,5.08-6.89,0V536.43Z"/><path class="cls-24" d="M449.88,572.26v70.5c0,4.32,6.89,5.08,6.89,0V575.54Z"/><path class="cls-24" d="M529.09,608.53V679.1c0,4.33-6.89,5.09-6.89,0V608.61l3.48,1.62Z"/><path class="cls-20" d="M501.72,661.18h0A7.73,7.73,0,0,0,502,659c0-7.77-11.61-14.08-25.92-14.08s-25.93,6.31-25.93,14.08a8,8,0,0,0,.55,2.89l7.19,38h.27c1.43,4.68,8.89,8.25,17.92,8.25s16.48-3.57,17.92-8.25h0l0-.2a5,5,0,0,0,.15-.73Z"/><path class="cls-35" d="M454.84,673.87a32,32,0,0,0,4.7,2.65,35.21,35.21,0,0,0,5,2,36.78,36.78,0,0,0,10.56,1.7,48.64,48.64,0,0,0,10.69-1,47.48,47.48,0,0,0,5.2-1.39,32.35,32.35,0,0,0,5-2.06,34.51,34.51,0,0,1-10.07,4,45.79,45.79,0,0,1-10.83,1.17A35.2,35.2,0,0,1,464.38,679,31.58,31.58,0,0,1,454.84,673.87Z"/><path class="cls-36" d="M495.24,660.69c-1.29-.74-2-2.28-3.18-3.27a9.28,9.28,0,0,0-3.55-1.67c-4.43-1.36-8.94-2.72-13.53-2.55a39.32,39.32,0,0,0-10.05,2.11,17.35,17.35,0,0,0-6,2.75,11,11,0,0,1-2.41,1.78,3.31,3.31,0,0,0-.66.31c-.53.39-.65,1.19-.87,1.87-.44,1.31-1.35,2.45-1.73,3.72,4.39,4.4,12.95,7.38,22.81,7.38,9,0,16.94-2.49,21.58-6.28.05-.63.11-1.26.16-1.89a4.32,4.32,0,0,0-.59-3.1A6.72,6.72,0,0,0,495.24,660.69Z"/><ellipse class="cls-37" cx="476.1" cy="659.04" rx="25.92" ry="14.08"/><path class="cls-6" d="M476.1,596v68.39a2.23,2.23,0,0,0,3,1,4.38,4.38,0,0,1,3.81.22V596Z"/><path class="cls-6" d="M467.3,619v40s1.56,2.71,2.6,2.19,1.9-2.47,2.42-2.19V613.1Z"/><path class="cls-26" d="M470.49,619a31.64,31.64,0,0,1,14.29,1.12c8,2.43,11.19,6.13,11.19,6.13s-8.47-2.24-11.63-3.31S470.49,619,470.49,619Z"/><path class="cls-26" d="M445.28,596a21.63,21.63,0,0,0-6.43,13.32s8.93-6.58,13.42-9.41,11.54-6.25,11.54-6.25-6.54-.68-7.88-.9S445.28,596,445.28,596Z"/><path class="cls-38" d="M473.68,594.2c-4.32-2.93-11.31-3.92-19.08-1.71s-9.32,3.47-9.32,3.47A75.08,75.08,0,0,1,473.68,594.2Z"/><path class="cls-25" d="M482,594.37s-.32-.21-.9-.51a17.05,17.05,0,0,0-15-.14c-8.76,4.1-8.21,14-8.21,14s9.13-9.12,13.65-10.42S482,594.37,482,594.37Z"/><path class="cls-25" d="M461.15,613.1c.11-4.52,3.93-10.37,13.9-16.82a36.51,36.51,0,0,1-3.92,7.43C468.8,606.92,461.15,613.1,461.15,613.1Z"/><path class="cls-25" d="M472.56,617c0-3.91-5.86-5.27-11.41-3.91-1.67-.51-1.67,1.7-1.67,1.7l11,4.19Z"/><path class="cls-26" d="M454.94,612.59c6.65-.1,13.33,4.18,15.55,6.4,0,0-8.89-.73-12.57-2.38a21.81,21.81,0,0,1-6-4Z"/><path class="cls-25" d="M470.49,619a39.39,39.39,0,0,0-15.56-2.09c-8.36.68-22.07,10.79-22.07,10.79s9.43-4.27,12.93-3.69,15.82-3.21,18-3.7S470.49,619,470.49,619Z"/><path class="cls-38" d="M470.49,619a43.65,43.65,0,0,0-12.08,2.76c-5.72,2.35-12.14,15.47-12.52,18.49,4.28-1.65,12.32-8.27,15.59-12.55A58.89,58.89,0,0,1,470.49,619Z"/><path class="cls-38" d="M479.49,636.45c.33-3.7.38-6.81-3.39-12.06s-5.61-5.4-5.61-5.4a14.26,14.26,0,0,0-4.47.6c-2.21.71.78.23,3.79,6.45S479.49,636.45,479.49,636.45Z"/><path class="cls-38" d="M467.3,619c.39-5.75,3-17.12,8.8-23C478.51,592.81,480.33,610.76,467.3,619Z"/><polygon class="cls-8" points="680.73 536.43 687.62 533.15 687.62 540.72 680.73 539.6 680.73 536.43"/><polygon class="cls-8" points="844.52 459.22 844.52 464.53 851.41 467.61 851.41 455.95 844.52 459.22"/><polygon class="cls-8" points="522.21 608.61 525.65 610.16 529.09 608.53 529.09 616.87 522.21 613.57 522.21 608.61"/><path class="cls-35" d="M479.08,611.46a3.37,3.37,0,0,1,1,0,3.42,3.42,0,0,1,1,.3,1.13,1.13,0,0,1-2-.3Z"/><path class="cls-35" d="M480.69,615.52a1.48,1.48,0,0,1,.9-.32,1.46,1.46,0,0,1,.9.29,1.13,1.13,0,0,1-1.8,0Z"/><path class="cls-35" d="M480.78,618a1.18,1.18,0,0,1,1-.15,1.15,1.15,0,0,1,.77.67,1.45,1.45,0,0,1-1,0A1.5,1.5,0,0,1,480.78,618Z"/><path class="cls-35" d="M480.64,628.13a1.87,1.87,0,0,1,1,0,1.78,1.78,0,0,1,.83.58,1.16,1.16,0,0,1-1.07.13A1.2,1.2,0,0,1,480.64,628.13Z"/><path class="cls-35" d="M470,640.44c0,.12.1.09.18.1a.73.73,0,0,1,.26,0,2,2,0,0,1,.58.14,2,2,0,0,1,1,.79,2,2,0,0,1-1.24-.09,2.26,2.26,0,0,1-.52-.3,1.25,1.25,0,0,1-.27-.26.48.48,0,0,1-.07-.21C469.88,640.53,470,640.42,470,640.44Z"/><path class="cls-35" d="M470.55,647.25a1,1,0,0,1,.75-.14,1,1,0,0,1,.6.47.77.77,0,0,1-.78.26A.76.76,0,0,1,470.55,647.25Z"/><path class="cls-35" d="M481,650.38a.88.88,0,0,1,1.43.18.87.87,0,0,1-.76.28A.91.91,0,0,1,481,650.38Z"/><path class="cls-49" d="M675.56,158.92v-3.33L671,158v3Z"/><path class="cls-49" d="M639,174.14s4.52,2.54,4.52,2.39v-3.75L641.22,174l-2.25-1.1Z"/><polygon class="cls-49" points="605.8 158.11 610.32 160.54 610.32 158.85 605.8 156.64 605.8 158.11"/><path class="cls-50" d="M542.18,156.64c1.31,5.29,8.93,15.68,12.15,19.49,0,0,4.83-22,6.3-27.84s3.37-11.19,7.91-15.11,6.88-3,2.92,1.8-2.78,5-2.78,5a69.37,69.37,0,0,0,7.32-3.08c2.79-1.46,4.69-2.5,5.71-7s3.67-2.24,2.93,6.13S582,146.4,578.93,146.7s-9.22,1.59-9.22,1.59c-1.17,1.63-3.81,33.26-8.06,41.61s-14,4.53-22.72-11.43S542.18,156.64,542.18,156.64Z"/><path class="cls-34" d="M549.06,183.31c2.05-.15,3.81-.74,5.27-7.18-.33-.39-.72-.87-1.14-1.39C551.23,179,547.54,183.41,549.06,183.31Z"/><path class="cls-51" d="M508.81,136c-4,3.69-18.91,12.86-21.4,24.82a170,170,0,0,0-2.93,25c.59,4.1,7.93,6.44,12.17,6.44l1.3,33.68a36.16,36.16,0,0,0,30.61-7.62c11.25-8.64,10.83-12.15,10.83-12.15l-.73-43.64s3.81-.58,6.45-7.17c0,0-2.64-9.48-4.54-16.09s-3.37-13.08-11.13-11.75S508.81,136,508.81,136Z"/><path class="cls-17" d="M544.07,157.54c-2.38-4.72-7.17-13-7.17-13s1.76,13,1.76,18C538.66,162.51,541.58,162.06,544.07,157.54Z"/><path class="cls-32" d="M508.48,127.5c-3.21-5.85-4.52-13.31-4.52-24.59S505.71,89.58,512.3,88s22.7-1.55,19.63,8.45-14.36,6.49-16.11,11.62S508.48,127.5,508.48,127.5Z"/><path class="cls-50" d="M531.93,96.42v28.23c0,7.7-10.69,11.33-10.69,11.33s.43,9.33-5.42,9.33-7-4.18-7-10.77a110.28,110.28,0,0,0-1-13.67s-6.29,1.37-6.73-6.39,7-5.27,7.47-2.34,2.78,5,2.48-.87-.43-13.63-.43-13.63C510.25,95.3,525.19,100.77,531.93,96.42Z"/><path class="cls-34" d="M513.47,133.52c-1.9-2.14-2.45,6.56-.86,11.19a7.76,7.76,0,0,0,3.21.6c5.85,0,5.42-9.33,5.42-9.33C518,136,515.82,136.15,513.47,133.52Z"/><path class="cls-22" d="M523.72,110.23c-2.85.36-2.92,12.68,1,12.42S527.24,109.79,523.72,110.23Z"/><path class="cls-50" d="M486.31,188.78c-.37,8,4.47,42.56,8.86,54.13s10.25,14.79,12.89,14.93,1.46-3.8-1.18-8.93a63.92,63.92,0,0,1-4.1-10.25,21.36,21.36,0,0,1,3.08,5.13c1.61,3.51,3.07,4,2.93.73a23.09,23.09,0,0,0-3.37-10c-1.61-2.49-4.25-4.54-5.86-6.59s-.29-35.44-.29-35.44S489.89,191.47,486.31,188.78Z"/><path class="cls-17" d="M522.35,206.94a2.49,2.49,0,0,0-.68-.89,2.77,2.77,0,0,0-1.46-.35c-3.59-.19-7.6-1-9.56-4a12.61,12.61,0,0,1-1.39-3.42c-.77-2.58-1.55-5.17-2.07-7.81-1.26-6.36-1.32-13.56-5.81-18.23-.68,6.73-1.11,13.48-1.68,20.16a.94.94,0,0,1-.29.73,1,1,0,0,1-.44.13c-.84.1-1.6.12-2.28.23L498,225.92a36.09,36.09,0,0,0,24.38-3.44c1.33-2.92,2.57-6,2.29-9.17A16.36,16.36,0,0,0,522.35,206.94Z"/><path class="cls-52" d="M814.16,163.93a16,16,0,0,0,8.55.51,4.45,4.45,0,0,0,1.87-.82,10.37,10.37,0,0,0-3-3.56c-1.16.12-2.33.54-3.49.68-2.64.31-3.9-1.22-6.29-1.45-5.43-.52-5.4,8.59-1.61,5.64a4.76,4.76,0,0,1,2.36-1.35A4.07,4.07,0,0,1,814.16,163.93Z"/><path class="cls-52" d="M704.86,231.43a19.11,19.11,0,0,0-4-4.27l-.81-.67A32.42,32.42,0,0,1,704.86,231.43Z"/><path class="cls-52" d="M707.9,222.61c-5.83-3.4-10.55-3.7-13.09-2.8a22,22,0,0,1,17.57,10.83c3.4,6,3.79,13.25,6.94,19.37l.18.29a15.34,15.34,0,0,0,.47-3.83C719.79,239.6,715.77,227.2,707.9,222.61Z"/><path class="cls-52" d="M705.46,232.47c-1.25-1.53-5-5.95-8.37-8s-4.67-4.77-9-3.68c-.38,1.11.22,2.29,1.47,3.5a59,59,0,0,0,16.77,11.35A8.09,8.09,0,0,0,705.46,232.47Z"/><path class="cls-52" d="M694,220.17a2.7,2.7,0,0,0-1,.93s2.21,1.45,4.85,3.53A16.09,16.09,0,0,1,694,220.17Z"/><path class="cls-53" d="M932.86,260c-3.41-2.42-7.1-5-10.65-2.56s-5.82-1-8.38,2c-2.34,2.74-.9,6.58,2.25,8.28-.46-1.1-1.35-1.78-1.55-3.06-.12-.7,0-1.58.6-1.88a1.88,1.88,0,0,1,1.65.37l4.3,2.6c.67.41,1.61.79,2.17.24a1.9,1.9,0,0,0,.38-1.25c.1-1.57.69-3.5,2.25-3.75a3.6,3.6,0,0,1,2.1.52,38.23,38.23,0,0,1,5.37,3.2,4.84,4.84,0,0,0,1.86,1,3.13,3.13,0,0,0,2.08-.44,5,5,0,0,0,1.86-1.9A42,42,0,0,1,932.86,260Z"/><path class="cls-41" d="M872.93,323.26c-4.18-2.51-9.3-1.65-13.93-2-.83-.06-2.3-.47-3.59-.6-.79.86-.46,1.59,4.45,1.74,7.31.22,11.61,2.36,12.32,3,.15.15-.12.15-.63.08a8.15,8.15,0,0,0,3.72.58A4.62,4.62,0,0,0,872.93,323.26Z"/><polygon class="cls-8" points="604.85 261.41 611.74 264.68 611.74 273.17 604.85 269.48 604.85 261.41"/><text class="cls-54" transform="matrix(0.95, -0.48, 0.34, 0.87, 216.29, 229.31)">L</text><text class="cls-54" transform="matrix(0.95, -0.48, 0.34, 0.87, 232.48, 221.1)">E</text><text class="cls-54" transform="matrix(0.95, -0.48, 0.34, 0.87, 249.33, 212.55)">G</text><text class="cls-54" transform="matrix(0.95, -0.48, 0.34, 0.87, 271.46, 201.32)">A</text><text class="cls-54" transform="matrix(0.95, -0.48, 0.34, 0.87, 292.42, 190.69)">L</text></g></g></g></svg>