<svg width="24" height="24" viewBox="0 0 24 24" fill="none" xmlns="http://www.w3.org/2000/svg">
<path d="M1.96967 13.0303L2.5 13.5607L3.56066 12.5L3.03033 11.9697L1.96967 13.0303ZM2 12H1.25C1.25 12.1989 1.32902 12.3897 1.46967 12.5303L2 12ZM2 2V1.25C1.58579 1.25 1.25 1.58579 1.25 2L2 2ZM12 2L12.5303 1.46967C12.3897 1.32902 12.1989 1.25 12 1.25V2ZM20.59 10.59L21.1219 10.0612L21.1203 10.0597L20.59 10.59ZM20.59 13.41L21.1203 13.9403L21.1219 13.9387L20.59 13.41ZM18.9697 13.9697L18.4393 14.5L19.5 15.5607L20.0303 15.0303L18.9697 13.9697ZM3.03033 11.9697L2.53033 11.4697L1.46967 12.5303L1.96967 13.0303L3.03033 11.9697ZM2.75 12L2.75 2H1.25L1.25 12H2.75ZM2 2.75L12 2.75V1.25L2 1.25V2.75ZM11.4697 2.53033L20.0597 11.1203L21.1203 10.0597L12.5303 1.46967L11.4697 2.53033ZM20.0581 11.1187C20.2909 11.353 20.4216 11.6698 20.4216 12H21.9216C21.9216 11.2735 21.6341 10.5765 21.1219 10.0613L20.0581 11.1187ZM20.4216 12C20.4216 12.3302 20.2909 12.647 20.0581 12.8813L21.1219 13.9387C21.6341 13.4235 21.9216 12.7265 21.9216 12H20.4216ZM20.0597 12.8797L18.9697 13.9697L20.0303 15.0303L21.1203 13.9403L20.0597 12.8797Z" fill="#2A344F"/>
<path d="M7 7H7.01" stroke="#2A344F" stroke-width="1.5" stroke-linecap="round" stroke-linejoin="round"/>
<path d="M11.4509 15V22H10.0953V17.9739C10.0953 17.881 10.0969 17.7801 10.0999 17.6712C10.106 17.5623 10.115 17.4518 10.1272 17.3397L8.36681 20.9382C8.31222 21.0503 8.23793 21.1352 8.14392 21.1929C8.05295 21.2505 7.94832 21.2793 7.83006 21.2793H7.62081C7.50255 21.2793 7.39641 21.2505 7.3024 21.1929C7.21142 21.1352 7.13864 21.0503 7.08406 20.9382L5.32369 17.3301C5.33279 17.4454 5.34037 17.5591 5.34643 17.6712C5.3525 17.7801 5.35553 17.881 5.35553 17.9739L5.35553 22H4L4 15H5.17358C5.2403 15 5.29791 15.0016 5.34643 15.0048C5.39799 15.008 5.44347 15.0176 5.4829 15.0336C5.52232 15.0496 5.55719 15.0753 5.58752 15.1105C5.62087 15.1425 5.65272 15.189 5.68304 15.2498L7.38883 18.8003C7.44948 18.922 7.50709 19.0485 7.56168 19.1798C7.6193 19.3111 7.67388 19.4457 7.72543 19.5834C7.77699 19.4425 7.83006 19.3047 7.88464 19.1702C7.94226 19.0357 8.00291 18.9076 8.06659 18.7859L9.76783 15.2498C9.79815 15.189 9.82848 15.1425 9.8588 15.1105C9.89216 15.0753 9.92855 15.0496 9.96797 15.0336C10.0074 15.0176 10.0514 15.008 10.0999 15.0048C10.1514 15.0016 10.2106 15 10.2773 15L11.4509 15Z" fill="#2A344F"/>
<path d="M17 20.7028V22H13.0062V15H14.5437V20.7028H17Z" fill="#2A344F"/>
</svg>
