<svg width="20" height="20" viewBox="0 0 20 20" fill="none" xmlns="http://www.w3.org/2000/svg">
<path d="M18.3333 3.3335H13.3333C12.4493 3.3335 11.6014 3.68469 10.9763 4.30981C10.3512 4.93493 10 5.78277 10 6.66683V18.3335C10 17.6705 10.2634 17.0346 10.7322 16.5657C11.2011 16.0969 11.837 15.8335 12.5 15.8335H18.3333V3.3335Z" stroke="white" stroke-width="1.5" stroke-linecap="round" stroke-linejoin="round"/>
<path d="M1.66797 3.3335H6.66797C7.55202 3.3335 8.39987 3.68469 9.02499 4.30981C9.65011 4.93493 10.0013 5.78277 10.0013 6.66683V18.3335C10.0013 17.6705 9.73791 17.0346 9.26907 16.5657C8.80023 16.0969 8.16434 15.8335 7.5013 15.8335H1.66797V3.3335Z" stroke="white" stroke-width="1.5" stroke-linecap="round" stroke-linejoin="round"/>
<path d="M14.168 11.6665H14.1763" stroke="white" stroke-width="1.5" stroke-linecap="round" stroke-linejoin="round"/>
<path d="M14.168 5.8335V9.16683" stroke="white" stroke-width="1.5" stroke-linecap="round" stroke-linejoin="round"/>
</svg>
