<svg width="20" height="20" viewBox="0 0 20 20" fill="none" xmlns="http://www.w3.org/2000/svg">
<path d="M10 12.5C11.3807 12.5 12.5 11.3807 12.5 10C12.5 8.61929 11.3807 7.5 10 7.5C8.61929 7.5 7.5 8.61929 7.5 10C7.5 11.3807 8.61929 12.5 10 12.5Z" stroke="#fff" stroke-width="1.5" stroke-linecap="round" stroke-linejoin="round"/>
<path d="M16.1654 12.5002C16.0544 12.7515 16.0213 13.0303 16.0704 13.3007C16.1194 13.571 16.2482 13.8204 16.4404 14.0168L16.4904 14.0668C16.6453 14.2216 16.7683 14.4054 16.8521 14.6078C16.936 14.8101 16.9792 15.027 16.9792 15.246C16.9792 15.465 16.936 15.6819 16.8521 15.8842C16.7683 16.0866 16.6453 16.2704 16.4904 16.4252C16.3356 16.5801 16.1518 16.7031 15.9494 16.7869C15.7471 16.8708 15.5302 16.914 15.3112 16.914C15.0922 16.914 14.8753 16.8708 14.673 16.7869C14.4706 16.7031 14.2868 16.5801 14.132 16.4252L14.082 16.3752C13.8856 16.183 13.6362 16.0542 13.3659 16.0052C13.0955 15.9561 12.8167 15.9892 12.5654 16.1002C12.3189 16.2058 12.1087 16.3812 11.9606 16.6048C11.8126 16.8283 11.7331 17.0903 11.732 17.3585V17.5002C11.732 17.9422 11.5564 18.3661 11.2439 18.6787C10.9313 18.9912 10.5074 19.1668 10.0654 19.1668C9.62334 19.1668 9.19941 18.9912 8.88685 18.6787C8.57429 18.3661 8.3987 17.9422 8.3987 17.5002V17.4252C8.39225 17.1493 8.30296 16.8818 8.14246 16.6574C7.98195 16.433 7.75764 16.2621 7.4987 16.1668C7.24735 16.0559 6.96854 16.0228 6.69821 16.0718C6.42788 16.1208 6.17843 16.2497 5.98203 16.4418L5.93203 16.4918C5.77724 16.6468 5.59343 16.7697 5.3911 16.8536C5.18877 16.9375 4.97189 16.9806 4.75286 16.9806C4.53384 16.9806 4.31696 16.9375 4.11463 16.8536C3.9123 16.7697 3.72849 16.6468 3.5737 16.4918C3.41874 16.337 3.29581 16.1532 3.21193 15.9509C3.12806 15.7486 3.08489 15.5317 3.08489 15.3127C3.08489 15.0936 3.12806 14.8768 3.21193 14.6744C3.29581 14.4721 3.41874 14.2883 3.5737 14.1335L3.6237 14.0835C3.81581 13.8871 3.94469 13.6376 3.9937 13.3673C4.04272 13.097 4.00963 12.8182 3.8987 12.5668C3.79306 12.3204 3.61766 12.1101 3.39409 11.9621C3.17051 11.814 2.90852 11.7346 2.64036 11.7335H2.4987C2.05667 11.7335 1.63275 11.5579 1.32019 11.2453C1.00763 10.9328 0.832031 10.5089 0.832031 10.0668C0.832031 9.6248 1.00763 9.20088 1.32019 8.88832C1.63275 8.57576 2.05667 8.40016 2.4987 8.40016H2.5737C2.84953 8.39371 3.11703 8.30443 3.34145 8.14392C3.56586 7.98341 3.73679 7.75911 3.83203 7.50016C3.94296 7.24882 3.97605 6.97 3.92703 6.69967C3.87802 6.42934 3.74914 6.17989 3.55703 5.9835L3.50703 5.9335C3.35207 5.77871 3.22914 5.59489 3.14526 5.39256C3.06139 5.19023 3.01822 4.97335 3.01822 4.75433C3.01822 4.5353 3.06139 4.31843 3.14526 4.1161C3.22914 3.91377 3.35207 3.72995 3.50703 3.57516C3.66182 3.4202 3.84563 3.29727 4.04796 3.2134C4.25029 3.12952 4.46717 3.08635 4.6862 3.08635C4.90522 3.08635 5.1221 3.12952 5.32443 3.2134C5.52676 3.29727 5.71058 3.4202 5.86536 3.57516L5.91536 3.62516C6.11176 3.81728 6.36121 3.94615 6.63154 3.99517C6.90187 4.04418 7.18068 4.01109 7.43203 3.90016H7.4987C7.74517 3.79453 7.95538 3.61913 8.10344 3.39555C8.2515 3.17198 8.33096 2.90998 8.33203 2.64183V2.50016C8.33203 2.05814 8.50763 1.63421 8.82019 1.32165C9.13275 1.00909 9.55667 0.833496 9.9987 0.833496C10.4407 0.833496 10.8646 1.00909 11.1772 1.32165C11.4898 1.63421 11.6654 2.05814 11.6654 2.50016V2.57516C11.6664 2.84332 11.7459 3.10531 11.894 3.32888C12.042 3.55246 12.2522 3.72786 12.4987 3.8335C12.75 3.94443 13.0289 3.97752 13.2992 3.9285C13.5695 3.87948 13.819 3.75061 14.0154 3.5585L14.0654 3.5085C14.2202 3.35354 14.404 3.2306 14.6063 3.14673C14.8086 3.06286 15.0255 3.01968 15.2445 3.01968C15.4636 3.01968 15.6804 3.06286 15.8828 3.14673C16.0851 3.2306 16.2689 3.35354 16.4237 3.5085C16.5787 3.66328 16.7016 3.8471 16.7855 4.04943C16.8693 4.25176 16.9125 4.46864 16.9125 4.68766C16.9125 4.90669 16.8693 5.12357 16.7855 5.3259C16.7016 5.52823 16.5787 5.71204 16.4237 5.86683L16.3737 5.91683C16.1816 6.11323 16.0527 6.36268 16.0037 6.633C15.9547 6.90333 15.9878 7.18215 16.0987 7.4335V7.50016C16.2043 7.74664 16.3797 7.95684 16.6033 8.10491C16.8269 8.25297 17.0889 8.33243 17.357 8.3335H17.4987C17.9407 8.3335 18.3646 8.50909 18.6772 8.82165C18.9898 9.13421 19.1654 9.55813 19.1654 10.0002C19.1654 10.4422 18.9898 10.8661 18.6772 11.1787C18.3646 11.4912 17.9407 11.6668 17.4987 11.6668H17.4237C17.1555 11.6679 16.8936 11.7474 16.67 11.8954C16.4464 12.0435 16.271 12.2537 16.1654 12.5002V12.5002Z" stroke="#fff" stroke-width="1.5" stroke-linecap="round" stroke-linejoin="round"/>
</svg>
