<svg width="20" height="20" viewBox="0 0 20 20" fill="none" xmlns="http://www.w3.org/2000/svg">
<path d="M1.55431 10.9468L2.08464 11.4772L3.1453 10.4165L2.61497 9.88617L1.55431 10.9468ZM1.66797 9.99984H0.917969C0.917969 10.1988 0.996987 10.3895 1.13764 10.5302L1.66797 9.99984ZM1.66797 1.6665V0.916504C1.25376 0.916504 0.917969 1.25229 0.917969 1.6665L1.66797 1.6665ZM10.0013 1.6665L10.5316 1.13617C10.391 0.995522 10.2002 0.916504 10.0013 0.916504V1.6665ZM17.1596 8.82484L17.6915 8.29609L17.69 8.29451L17.1596 8.82484ZM17.1596 11.1748L17.69 11.7052L17.6915 11.7036L17.1596 11.1748ZM15.721 11.5528L15.1906 12.0832L16.2513 13.1438L16.7816 12.6135L15.721 11.5528ZM2.61497 9.88617L2.1983 9.46951L1.13764 10.5302L1.55431 10.9468L2.61497 9.88617ZM2.41797 9.99984V1.6665H0.917969V9.99984H2.41797ZM1.66797 2.4165H10.0013V0.916504H1.66797V2.4165ZM9.47097 2.19683L16.6293 9.35517L17.69 8.29451L10.5316 1.13617L9.47097 2.19683ZM16.6277 9.35359C16.7985 9.52534 16.8943 9.75767 16.8943 9.99984H18.3943C18.3943 9.36139 18.1416 8.74888 17.6915 8.29609L16.6277 9.35359ZM16.8943 9.99984C16.8943 10.242 16.7985 10.4743 16.6277 10.6461L17.6915 11.7036C18.1416 11.2508 18.3943 10.6383 18.3943 9.99984H16.8943ZM16.6293 10.6445L15.721 11.5528L16.7816 12.6135L17.69 11.7052L16.6293 10.6445Z" fill="white"/>
<path d="M5.83203 5.8335H5.84037" stroke="white" stroke-width="1.5" stroke-linecap="round" stroke-linejoin="round"/>
<path d="M9.54109 12.5V18.3333H8.41148V14.9783C8.41148 14.9009 8.41274 14.8168 8.41527 14.726C8.42032 14.6353 8.42791 14.5432 8.43801 14.4498L6.97104 17.4485C6.92555 17.5419 6.86364 17.6127 6.7853 17.6607C6.70949 17.7088 6.6223 17.7328 6.52374 17.7328H6.34938C6.25082 17.7328 6.16237 17.7088 6.08403 17.6607C6.00822 17.6127 5.94757 17.5419 5.90208 17.4485L4.43511 14.4418C4.44269 14.5379 4.449 14.6326 4.45406 14.726C4.45911 14.8168 4.46164 14.9009 4.46164 14.9783V18.3333H3.33203V12.5H4.31001C4.36561 12.5 4.41363 12.5013 4.45406 12.504C4.49702 12.5067 4.53493 12.5147 4.56778 12.528C4.60063 12.5414 4.62969 12.5627 4.65496 12.5921C4.68276 12.6188 4.70929 12.6575 4.73457 12.7082L6.15605 15.6669C6.20659 15.7683 6.25461 15.8738 6.3001 15.9832C6.34811 16.0926 6.3936 16.2047 6.43656 16.3195C6.47952 16.2021 6.52374 16.0873 6.56923 15.9752C6.61725 15.8631 6.66779 15.7563 6.72086 15.6549L8.13855 12.7082C8.16382 12.6575 8.1891 12.6188 8.21437 12.5921C8.24216 12.5627 8.27249 12.5414 8.30534 12.528C8.33819 12.5147 8.37484 12.5067 8.41527 12.504C8.45823 12.5013 8.50751 12.5 8.5631 12.5H9.54109Z" fill="white"/>
<path d="M14.1654 17.2523V18.3333H10.8372V12.5H12.1184V17.2523H14.1654Z" fill="white"/>
</svg>
