<svg width="48" height="24" viewBox="0 0 48 24" fill="none" xmlns="http://www.w3.org/2000/svg">
<path fill-rule="evenodd" clip-rule="evenodd" d="M39.2931 0.00123426C36.0876 -0.0728218 33.104 3.21032 33.104 3.21032L14.3641 11.0849C14.3641 11.0849 20.0107 14.763 26.2738 14.5902C32.5368 14.4421 38.7999 10.4678 38.7999 10.4678C37.7643 11.4059 36.63 12.2452 35.4464 12.9857C33.4739 14.2199 30.5642 15.8985 26.8902 16.1207C24.0053 16.3429 21.1203 15.8985 18.4326 14.8124C16.6079 14.1953 15.9915 14.4421 15.9915 14.4421C15.9915 14.4421 0.999609 21.6255 0.383165 21.9218C-0.233278 22.218 -0.0853319 23.3782 0.679055 22.9832C1.46811 22.613 9.62984 19.1817 11.1586 18.6386C12.6874 18.0955 14.9806 18.0215 18.9505 19.7001C21.9093 20.8109 25.0162 21.5021 28.1724 21.7737L29.6272 23.8472H31.0081C31.0081 23.8472 30.6382 23.3782 30.0957 22.7858C29.5533 22.1686 30.2437 21.4034 30.2437 21.4034C30.2437 21.4034 39.3177 18.7374 42.4492 15.5283C45.5808 12.3192 44.5205 8.41891 44.4219 6.74031C44.2739 4.9136 47.4795 3.82746 47.4795 3.82746L44.4958 2.44508C43.1643 0.939272 41.2904 0.0752903 39.2931 0.00123426ZM41.9807 4.19773C41.3643 4.22242 40.8465 3.72871 40.8465 3.13627C40.8465 2.49445 41.3643 2.00074 41.9807 2.00074C42.5972 2.00074 43.115 2.51913 43.115 3.13627C43.0904 3.7534 42.5972 4.22242 41.9807 4.19773Z" fill="#2A344F"/>
</svg>
